<svg width="1280" height="29" viewBox="0 0 1280 29" fill="none" xmlns="http://www.w3.org/2000/svg">
<g clip-path="url(#clip0_1_85)">
<path fill-rule="evenodd" clip-rule="evenodd" d="M173.102 4.91415C174.365 5.06098 175.617 5.20668 177.245 5.86143C178.695 6.5084 180.003 6.08575 181.519 5.59583C182.008 5.43769 182.52 5.27253 183.063 5.13408C183.414 5.01952 183.718 4.89719 184.017 4.77716L184.018 4.77701C184.515 4.57778 184.996 4.38491 185.637 4.24448C187.812 4.06902 190.008 3.83642 192.215 3.60249C196.786 3.11787 201.412 2.62754 206.039 2.62754C206.039 2.62754 206.214 2.76229 206.39 2.76229C210.786 4.37924 215.36 5.18771 220.284 4.64873C220.688 4.85454 221.079 5.05162 221.462 5.24441L221.466 5.24639L221.467 5.24701L221.469 5.24847C222.588 5.81148 223.635 6.33819 224.681 6.9394C226.44 7.07415 228.198 7.07415 229.957 6.66991C231.892 6.26568 233.826 6.26568 235.586 6.9394C238.021 8.05939 240.627 7.23996 242.992 6.49614C244.041 6.16609 245.042 5.85093 245.962 5.72669C247.288 5.87192 248.053 6.29104 248.78 6.68888C249.401 7.02929 249.994 7.35412 250.887 7.47838C252.51 6.17236 254.77 6.27285 257.08 6.37552C259.774 6.4953 262.534 6.61804 264.429 4.51398C265.832 5.30258 266.788 4.71805 267.798 4.09975C268.687 3.55593 269.618 2.98599 270.935 3.30127C274.806 7.03516 278.325 5.3092 281.971 3.52161C282.798 3.11589 283.632 2.707 284.477 2.35805C286.588 3.03178 288.875 3.03178 291.161 2.49279C293.899 4.66492 297.233 4.54712 300.532 4.43061C303.167 4.33751 305.78 4.24525 308.044 5.32245C309.582 5.10833 310.898 4.55392 312.178 4.01411C314.12 3.19515 315.984 2.40975 318.421 2.89704C320.884 0.741101 324.049 0.606355 327.039 1.41483C327.451 1.25697 327.803 1.19157 328.095 1.13741C328.301 1.0991 328.477 1.0664 328.622 1.0106C332.315 -0.202119 335.657 -0.606356 338.999 1.41483C340.23 2.2233 341.988 2.08856 343.571 1.68432C345.155 1.28009 346.737 1.28009 348.32 1.54958C350.09 1.76371 351.909 1.94004 353.752 2.11861L353.753 2.11871C355.388 2.27721 357.042 2.43749 358.697 2.62754C360.736 4.3643 363.361 5.20564 366.005 6.05323V6.05335C367.464 6.52091 368.929 6.99039 370.304 7.61313C371.701 7.4602 373.084 7.23133 374.461 7.00348C377.938 6.42829 381.375 5.85958 384.901 6.53517L384.905 6.53413C386.838 5.86075 388.772 5.18743 390.178 4.64873C390.642 4.24291 390.855 3.74162 391.065 3.25267V3.25258C391.41 2.44277 391.742 1.66687 393.167 1.41483C396.137 3.23465 399.482 2.94232 402.886 2.64486C403.514 2.58992 404.145 2.53481 404.776 2.49279C406.071 2.44962 407.349 2.32346 408.615 2.19851C411.3 1.93346 413.929 1.67386 416.558 2.2233C421.307 3.16652 426.056 3.97499 431.157 4.10974C434.498 4.24448 437.839 4.78347 440.654 6.40042C444.478 8.62718 447.104 8.10168 451.08 7.30643C451.675 7.18736 452.301 7.06223 452.965 6.9394C455.955 6.40042 460.879 5.18771 463.869 4.24448C464.748 5.05296 465.627 5.72669 467.386 5.86143C468.266 5.59194 469.321 5.32245 470.552 5.05296C471.618 5.93271 472.99 6.43149 474.329 6.9183C475.862 7.47536 477.352 8.01673 478.291 9.09531C480.077 8.96289 481.826 9.09077 483.506 9.21366C486.953 9.46587 490.11 9.69687 492.712 7.61313C493.768 6.66991 495.878 6.53517 497.637 6.53517C497.979 6.53517 498.334 6.55597 498.699 6.57734C499.65 6.63291 500.666 6.69235 501.681 6.40042C502.275 6.28672 502.713 5.98112 503.177 5.65569C503.815 5.20979 504.507 4.72662 505.726 4.64873C511.079 8.33914 517.55 7.6622 524.367 6.94913C526.511 6.72492 528.688 6.49712 530.877 6.40042C531.585 6.52113 532.154 6.80406 532.706 7.07966C533.388 7.41933 534.048 7.74788 534.922 7.74788C536.313 7.68863 537.57 7.26464 538.854 6.83103C540.49 6.27854 542.174 5.71044 544.243 5.86143C546.155 7.69303 549.079 7.42223 551.967 7.15476L551.968 7.15461C552.266 7.12698 552.564 7.09938 552.86 7.07415C555.5 6.86123 558.113 7.00578 560.731 7.15062C564.74 7.37242 568.76 7.59487 572.91 6.53517C575.748 7.9268 578.367 7.185 581.096 6.41167C582.595 5.98696 584.127 5.55274 585.748 5.4572C586.981 5.86143 588.387 6.26568 589.794 6.66991C592.257 5.05296 595.07 4.91822 597.708 5.18771C598.427 5.00397 598.965 4.68102 599.504 4.35807C600.149 3.97054 600.794 3.58301 601.753 3.43601C603.695 4.21532 605.685 3.8399 607.776 3.44568C609.661 3.0901 611.628 2.71923 613.713 3.16653C613.975 2.8848 614.222 2.6151 614.458 2.35743L614.459 2.35624C615.012 1.75167 615.506 1.2133 615.999 0.741107C618.371 1.6835 620.656 1.28079 623.137 0.843314C625.623 0.405068 628.308 -0.0680734 631.476 0.741107C631.707 0.847145 631.937 1.01808 632.2 1.21258V1.21271V1.21282C632.938 1.75976 633.927 2.49279 635.872 2.49279C640.221 0.232233 644.98 1.22833 649.788 2.2345L649.792 2.23512C650.427 2.36827 651.064 2.50159 651.702 2.62754C652.01 2.86337 652.284 3.14132 652.567 3.42769V3.42804L652.568 3.4285V3.4286C653.417 4.28733 654.34 5.22143 656.45 5.32245C656.923 5.09552 657.408 4.8533 657.904 4.6048L657.907 4.60332C660.358 3.3767 663.112 1.9976 666.475 1.54958H667.178C669.289 3.43601 671.751 3.57076 674.565 2.62754C676.5 2.08856 678.786 2.2233 680.545 3.16653C682.457 3.96548 684.368 3.8433 686.45 3.71026L686.525 3.7055C688.03 3.55499 689.512 3.34843 690.997 3.14148C693.5 2.79262 696.011 2.44262 698.66 2.35805C701.571 2.19875 704.236 2.83985 706.873 3.47425C708.697 3.91307 710.508 4.34869 712.378 4.51398C713.802 4.75652 715.263 4.75349 716.726 4.75046C718.516 4.74676 720.31 4.74304 722.05 5.18771C722.904 5.44921 723.509 5.26665 724.106 5.08632C724.741 4.89496 725.367 4.70611 726.272 5.05296H729.965C731.081 5.77671 732.198 5.53664 733.273 5.30538C734.4 5.06302 735.483 4.83034 736.473 5.72669C737.351 6.53517 738.583 7.07415 739.814 7.20889C745.442 7.74788 751.07 6.9394 756.522 3.84025C758.33 4.60222 759.673 4.75882 761.007 4.91415C762.266 5.06098 763.516 5.20668 765.14 5.86143C766.606 6.51646 767.925 6.10502 769.461 5.62577C769.75 5.53576 770.046 5.44335 770.353 5.35517V5.3538C770.933 5.18484 771.377 4.9987 771.813 4.82046C772.344 4.60086 772.839 4.39324 773.523 4.24448C775.704 4.06902 777.909 3.83643 780.114 3.6025C784.7 3.11788 789.333 2.62754 793.967 2.62754C793.967 2.62754 794.144 2.76229 794.321 2.76229C798.73 4.37924 803.316 5.18771 808.245 4.64873C808.657 4.85502 809.046 5.05253 809.435 5.24576C810.555 5.8098 811.605 6.33722 812.654 6.9394C814.422 7.07415 817.476 7.07415 819.245 6.66991C821.178 6.26568 823.124 6.26568 824.88 6.9394C827.321 8.05939 829.938 7.23997 832.308 6.49614C833.357 6.1661 834.359 5.85093 835.279 5.72669C836.611 5.87192 837.378 6.29104 838.109 6.68888C838.722 7.02929 839.323 7.35412 840.219 7.47838C841.846 6.17236 844.11 6.27285 846.421 6.37552C849.12 6.4953 851.891 6.61804 853.789 4.51398C855.192 5.30257 856.147 4.71805 857.161 4.09977C858.057 3.55594 858.989 2.98599 860.309 3.30127C864.188 7.03517 867.713 5.30919 871.368 3.5216C872.194 3.11589 873.031 2.707 873.88 2.35805C876.002 3.03178 878.289 3.03178 880.576 2.49279C883.323 4.66492 886.66 4.54712 889.973 4.43061C892.614 4.33751 895.231 4.24525 897.495 5.32245C899.039 5.10833 900.36 4.55393 901.645 4.01413C903.59 3.19516 905.453 2.40975 907.894 2.89704C910.37 0.741101 913.541 0.606355 916.536 1.41483C916.948 1.25697 917.302 1.19158 917.597 1.13742C917.797 1.09911 917.974 1.06641 918.127 1.0106C921.83 -0.202119 925.178 -0.606356 928.526 1.41483C929.752 2.2233 931.521 2.08856 933.101 1.68432C934.692 1.28009 936.272 1.28009 937.864 1.54958C939.632 1.76372 941.46 1.94005 943.311 2.11863C944.95 2.27715 946.6 2.43745 948.263 2.62754C950.302 4.3643 952.943 5.20564 955.584 6.05322C957.046 6.52082 958.52 6.99032 959.899 7.61313C961.291 7.4602 962.682 7.23134 964.061 7.00349C967.551 6.4283 970.994 5.85957 974.531 6.53517C976.464 5.86143 978.398 5.18771 979.813 4.64873C980.272 4.24291 980.496 3.7416 980.697 3.25264C981.051 2.44281 981.381 1.66688 982.807 1.41483C985.79 3.23465 989.139 2.94232 992.546 2.64486C993.183 2.58993 993.807 2.53481 994.444 2.49279C995.741 2.44962 997.026 2.32345 998.288 2.1985C1000.98 1.93346 1003.62 1.67386 1006.26 2.2233C1011.01 3.16652 1015.77 3.97499 1020.88 4.10974C1024.23 4.24448 1027.57 4.78347 1030.4 6.40042C1034.24 8.62718 1036.86 8.10168 1040.85 7.30642C1041.45 7.18735 1042.08 7.06223 1042.74 6.9394C1045.73 6.40042 1050.67 5.18771 1053.67 4.24448C1054.55 5.05296 1055.43 5.72669 1057.19 5.86143C1058.07 5.59194 1059.12 5.32245 1060.36 5.05296C1061.43 5.93272 1062.8 6.43149 1064.15 6.91831C1065.69 7.47536 1067.18 8.01674 1068.12 9.09531C1069.91 8.96289 1071.66 9.09077 1073.34 9.21366C1076.8 9.46587 1079.97 9.69687 1082.57 7.61313C1083.64 6.66991 1085.75 6.53517 1087.5 6.53517C1087.84 6.53517 1088.21 6.55597 1088.58 6.57734C1089.53 6.63291 1090.54 6.69235 1091.56 6.40042C1092.16 6.28672 1092.6 5.98115 1093.06 5.65572C1093.7 5.20981 1094.39 4.72662 1095.61 4.64873C1100.98 8.33914 1107.46 7.6622 1114.3 6.94913C1116.45 6.72492 1118.63 6.49712 1120.82 6.40042C1121.53 6.52113 1122.09 6.80405 1122.65 7.07964C1123.33 7.41932 1123.99 7.74788 1124.88 7.74788C1126.27 7.68863 1127.53 7.26464 1128.81 6.83104C1130.45 6.27854 1132.14 5.71044 1134.21 5.86143C1136.14 7.69303 1139.06 7.42223 1141.96 7.15476C1142.26 7.12708 1142.55 7.09943 1142.86 7.07415C1145.5 6.86123 1148.11 7.00578 1150.74 7.15061C1154.75 7.37242 1158.78 7.59487 1162.95 6.53517C1165.79 7.92681 1168.42 7.18499 1171.15 6.41167C1172.65 5.98696 1174.18 5.55274 1175.81 5.4572C1177.05 5.86143 1178.46 6.26568 1179.87 6.66991C1182.33 5.05296 1185.16 4.91822 1187.8 5.18771C1188.52 5.00397 1189.06 4.68103 1189.59 4.35809C1190.24 3.97055 1190.89 3.58301 1191.86 3.43601C1193.8 4.21532 1195.79 3.83991 1197.89 3.44568C1199.78 3.0901 1201.75 2.71922 1203.83 3.16653C1204.11 2.88492 1204.35 2.61534 1204.59 2.35775C1205.14 1.75258 1205.64 1.21369 1206.13 0.741107C1208.5 1.6835 1210.8 1.28079 1213.28 0.843317C1215.78 0.40507 1218.47 -0.068075 1221.64 0.741107C1221.87 0.847184 1222.1 1.01821 1222.37 1.2128C1223.11 1.75973 1224.1 2.49279 1226.05 2.49279C1230.41 0.23222 1235.17 1.22834 1239.99 2.23452C1240.63 2.36787 1241.27 2.50139 1241.9 2.62754C1242.22 2.8636 1242.49 3.14186 1242.78 3.42852C1243.63 4.28728 1244.56 5.22143 1246.67 5.32245C1247.15 5.09503 1247.63 4.85224 1248.13 4.60318C1250.58 3.37659 1253.34 1.99758 1256.71 1.54958H1257.42C1259.53 3.43601 1262.01 3.57076 1264.82 2.62754C1266.76 2.08856 1269.06 2.2233 1270.81 3.16653C1272.74 3.96547 1274.65 3.8433 1276.73 3.71027L1276.81 3.7055C1278.32 3.55499 1279.81 3.34843 1281.29 3.14148C1283.79 2.79262 1286.32 2.44262 1288.97 2.35805C1291.89 2.19875 1294.56 2.83985 1297.2 3.47425C1299.03 3.91307 1300.84 4.34869 1302.72 4.51398C1304.14 4.75652 1305.61 4.75349 1307.08 4.75046C1308.87 4.74676 1310.66 4.74304 1312.41 5.18771C1313.27 5.44921 1313.87 5.26665 1314.47 5.08632C1315.11 4.89496 1315.73 4.70611 1316.64 5.05296H1320.34C1321.46 5.77671 1322.58 5.53664 1323.66 5.30538C1324.79 5.06302 1325.87 4.83033 1326.86 5.72669C1327.75 6.53517 1328.99 7.07415 1330.21 7.20889C1335.86 7.74788 1341.49 6.9394 1346.97 3.84025C1348.77 4.60222 1350.12 4.75882 1351.46 4.91415C1352.72 5.06098 1353.97 5.20668 1355.6 5.86143C1357.05 6.50839 1358.35 6.08576 1359.88 5.59584C1360.36 5.4377 1360.88 5.27255 1361.42 5.13411C1361.76 5.01948 1362.07 4.89708 1362.37 4.777C1362.87 4.57777 1363.35 4.3849 1363.99 4.24448C1366.17 4.06902 1368.36 3.83642 1370.57 3.60249C1375.14 3.11787 1379.76 2.62754 1384.39 2.62754C1384.39 2.62754 1384.56 2.76229 1384.74 2.76229C1389.14 4.37924 1393.71 5.18771 1398.64 4.64873C1399.03 4.85216 1399.42 5.04707 1399.8 5.23773L1399.82 5.24639V5.24701C1400.94 5.81057 1401.99 6.33766 1403.04 6.9394C1404.8 7.07415 1406.55 7.07415 1408.31 6.66991C1410.24 6.26568 1412.18 6.26568 1413.93 6.9394C1416.37 8.05939 1418.98 7.23996 1421.35 6.49614C1422.4 6.16609 1423.4 5.85093 1424.32 5.72669C1425.64 5.87192 1426.41 6.29104 1427.14 6.68888C1427.75 7.02929 1428.35 7.35412 1429.24 7.47838C1430.86 6.17236 1433.13 6.27285 1435.44 6.37552C1438.13 6.4953 1440.88 6.61804 1442.78 4.51398C1444.19 5.30257 1445.14 4.71805 1446.15 4.09976C1447.04 3.55593 1447.97 2.98599 1449.29 3.30127C1453.16 7.03515 1456.68 5.30921 1460.33 3.52163C1461.15 3.11591 1461.99 2.707 1462.83 2.35805C1464.94 3.03178 1467.22 3.03178 1469.51 2.49279C1472.25 4.66492 1475.58 4.54712 1478.88 4.43061C1481.52 4.33751 1484.13 4.24525 1486.39 5.32245C1487.94 5.10833 1489.25 4.55394 1490.53 4.01413C1492.48 3.19516 1494.34 2.40975 1496.77 2.89704C1499.23 0.741101 1502.4 0.606355 1505.39 1.41483C1505.8 1.25697 1506.15 1.19157 1506.45 1.13741C1506.65 1.0991 1506.83 1.0664 1506.98 1.0106C1510.67 -0.202119 1514.01 -0.606356 1517.35 1.41483C1518.58 2.2233 1520.34 2.08856 1521.93 1.68432C1523.51 1.28009 1525.09 1.28009 1526.67 1.54958C1528.45 1.76372 1530.26 1.94005 1532.1 2.11862C1533.74 2.27714 1535.39 2.43744 1537.04 2.62754C1539.09 4.36431 1541.71 5.20565 1544.35 6.05324C1545.82 6.52084 1547.28 6.99034 1548.66 7.61313C1550.06 7.46022 1551.44 7.23141 1552.82 7.0036V7.00348C1556.28 6.4283 1559.73 5.85957 1563.25 6.53517L1563.26 6.5331C1565.2 5.86006 1567.12 5.18716 1568.53 4.64873C1568.99 4.24291 1569.21 3.7416 1569.42 3.25265C1569.76 2.44281 1570.09 1.66688 1571.52 1.41483C1574.49 3.23466 1577.84 2.94231 1581.23 2.64485C1581.87 2.58992 1582.49 2.53481 1583.13 2.49279C1584.43 2.44962 1585.7 2.32346 1586.96 2.19851C1589.65 1.93346 1592.28 1.67386 1594.91 2.2233C1599.66 3.16652 1604.41 3.97499 1609.5 4.10974C1612.85 4.24448 1616.19 4.78347 1619.01 6.40042C1622.83 8.62718 1625.46 8.10168 1629.43 7.30642C1630.03 7.18735 1630.66 7.06223 1631.32 6.9394C1634.31 6.40042 1639.23 5.18771 1642.22 4.24448C1643.11 5.05296 1643.98 5.72669 1645.74 5.86143C1646.62 5.59194 1647.67 5.32245 1648.91 5.05296C1649.97 5.93272 1651.35 6.43149 1652.68 6.91831C1654.21 7.47536 1655.71 8.01674 1656.64 9.09531C1658.43 8.96289 1660.18 9.09077 1661.85 9.21366C1665.31 9.46587 1668.47 9.69687 1671.06 7.61313C1672.12 6.66991 1674.23 6.53517 1675.99 6.53517C1676.33 6.53517 1676.68 6.55597 1677.05 6.57734C1678 6.63291 1679.02 6.69235 1680.03 6.40042C1680.63 6.28672 1681.07 5.98112 1681.53 5.65569C1682.17 5.20979 1682.86 4.72662 1684.08 4.64873C1689.43 8.33913 1695.9 7.6622 1702.72 6.94913C1704.86 6.72492 1707.04 6.49712 1709.22 6.40042C1709.94 6.52113 1710.51 6.80405 1711.06 7.07964C1711.74 7.41932 1712.4 7.74788 1713.27 7.74788C1714.67 7.68863 1715.92 7.26464 1717.21 6.83103C1718.85 6.27854 1720.53 5.71044 1722.59 5.86143C1724.5 7.69302 1727.43 7.42223 1730.32 7.15476V7.1546C1730.62 7.12697 1730.92 7.09937 1731.21 7.07415C1733.85 6.86123 1736.47 7.00578 1739.09 7.15061C1743.1 7.37242 1747.12 7.59487 1751.27 6.53517C1754.1 7.9268 1756.71 7.185 1759.45 6.41168V6.4115C1760.95 5.98684 1762.48 5.55272 1764.11 5.4572C1765.33 5.86143 1766.74 6.26568 1768.15 6.66991C1770.6 5.05296 1773.42 4.91822 1776.06 5.18771C1776.78 5.00397 1777.32 4.68102 1777.85 4.35807C1778.5 3.97054 1779.15 3.58301 1780.11 3.43601C1782.05 4.21532 1784.04 3.83991 1786.13 3.44568C1788.02 3.0901 1789.99 2.71923 1792.06 3.16653C1792.33 2.88505 1792.58 2.61556 1792.82 2.35809V2.35407C1793.37 1.75039 1793.86 1.21273 1794.35 0.741107C1796.72 1.6835 1799.01 1.28079 1801.49 0.843314C1803.98 0.405068 1806.66 -0.0680734 1809.83 0.741107C1810.06 0.847159 1810.29 1.01813 1810.55 1.21265V1.21282C1811.29 1.75976 1812.28 2.49279 1814.23 2.49279C1818.58 0.23222 1823.33 1.22834 1828.14 2.23452C1828.78 2.36787 1829.41 2.50139 1830.05 2.62754C1830.37 2.86347 1830.64 3.14154 1830.92 3.42804V3.42848V3.42869C1831.77 4.2874 1832.69 5.22144 1834.8 5.32245C1835.27 5.09634 1835.75 4.85506 1836.25 4.60751L1836.26 4.60344C1838.71 3.37679 1841.46 1.99762 1844.83 1.54958H1845.53C1847.64 3.43601 1850.1 3.57076 1852.92 2.62754C1854.85 2.08856 1857.14 2.2233 1858.9 3.16653C1860.81 3.96549 1862.72 3.84329 1864.81 3.71026L1864.88 3.7055C1866.39 3.55499 1867.87 3.34844 1869.34 3.14149C1871.86 2.79262 1874.37 2.44262 1877.01 2.35805C1879.92 2.19875 1882.58 2.83984 1885.23 3.47425C1887.05 3.91307 1888.86 4.34869 1890.73 4.51398C1892.16 4.75652 1893.62 4.75349 1895.08 4.75046C1896.86 4.74676 1898.67 4.74304 1900.4 5.18771C1901.26 5.44921 1901.86 5.26665 1902.46 5.08632C1903.09 4.89496 1903.72 4.70611 1904.62 5.05296H1908.32C1909.43 5.77671 1910.55 5.53664 1911.62 5.30538C1912.76 5.06302 1913.84 4.83034 1914.83 5.72669C1915.7 6.53517 1916.94 7.07415 1918.17 7.20889C1923.79 7.74788 1929.43 6.9394 1934.87 3.84025C1936.68 4.60222 1938.02 4.75882 1939.35 4.91415C1940.62 5.06098 1941.86 5.20668 1943.49 5.86143C1944.94 6.5084 1946.25 6.08575 1947.76 5.59582V5.59563C1948.46 5.37133 1949.19 5.13297 1950 4.9767V28.8644L1362.12 28.8646H770.353L183.766 28.8644V28.8646H-408L-408 4.97666C-407.352 4.89422 -406.771 4.73945 -406.135 4.56999H-406.135C-405.732 4.46249 -405.306 4.34908 -404.827 4.24448C-402.646 4.06902 -400.447 3.83642 -398.235 3.6025C-393.653 3.11788 -389.017 2.62754 -384.381 2.62754C-384.381 2.62754 -384.204 2.76229 -384.028 2.76229C-379.622 4.37924 -375.039 5.18771 -370.104 4.64873C-369.699 4.85503 -369.306 5.05256 -368.921 5.24579L-368.92 5.2463L-368.92 5.24637C-367.797 5.81017 -366.747 6.33743 -365.697 6.9394C-363.935 7.07415 -360.874 7.07415 -359.112 6.66991C-357.173 6.26568 -355.234 6.26568 -353.471 6.9394C-351.03 8.05939 -348.419 7.23997 -346.049 6.49614C-344.997 6.1661 -343.993 5.85093 -343.072 5.72669C-341.742 5.87192 -340.976 6.29104 -340.248 6.68888C-339.625 7.02929 -339.031 7.35412 -338.137 7.47838C-336.51 6.17236 -334.245 6.27285 -331.93 6.37552C-329.23 6.4953 -326.463 6.61804 -324.565 4.51398C-323.158 5.30257 -322.201 4.71805 -321.188 4.09976C-320.297 3.55593 -319.363 2.98599 -318.043 3.30127C-314.165 7.03517 -310.637 5.30919 -306.984 3.52161C-306.155 3.11589 -305.319 2.707 -304.472 2.35805C-302.357 3.03178 -300.065 3.03178 -297.774 2.49279C-295.03 4.66492 -291.688 4.54712 -288.382 4.43061C-285.741 4.33751 -283.123 4.24525 -280.853 5.32245C-279.312 5.10833 -277.994 4.55392 -276.711 4.01412C-274.764 3.19515 -272.897 2.40975 -270.453 2.89704C-267.985 0.741101 -264.813 0.606355 -261.817 1.41483C-261.404 1.25697 -261.052 1.19157 -260.759 1.13741C-260.553 1.0991 -260.376 1.0664 -260.23 1.0106C-256.529 -0.202119 -253.18 -0.606356 -249.831 1.41483C-248.597 2.2233 -246.834 2.08856 -245.248 1.68432C-243.663 1.28009 -242.076 1.28009 -240.489 1.54958C-238.716 1.76371 -236.892 1.94003 -235.045 2.1186V2.11862C-233.405 2.27715 -231.748 2.43745 -230.09 2.62754C-228.046 4.3643 -225.415 5.20564 -222.765 6.05323C-221.303 6.52083 -219.835 6.99033 -218.457 7.61313C-217.056 7.4602 -215.671 7.23133 -214.29 7.00348C-210.808 6.42829 -207.363 5.85958 -203.828 6.53517C-201.888 5.86143 -199.95 5.18771 -198.54 4.64873C-198.076 4.24291 -197.861 3.7416 -197.651 3.25265C-197.304 2.44282 -196.972 1.66688 -195.543 1.41483C-192.567 3.23466 -189.215 2.94232 -185.804 2.64485C-185.174 2.58992 -184.542 2.53481 -183.91 2.49279C-182.612 2.44962 -181.33 2.32345 -180.062 2.1985C-177.371 1.93346 -174.736 1.67386 -172.101 2.2233C-167.341 3.16652 -162.583 3.97499 -157.472 4.10974C-154.122 4.24448 -150.774 4.78347 -147.954 6.40042C-144.121 8.62718 -141.488 8.10168 -137.504 7.30642C-136.908 7.18735 -136.281 7.06223 -135.616 6.9394C-132.619 6.40042 -127.683 5.18771 -124.687 4.24448C-123.806 5.05296 -122.925 5.72669 -121.162 5.86143C-120.28 5.59194 -119.223 5.32245 -117.99 5.05296C-116.92 5.93272 -115.546 6.4315 -114.203 6.91831C-112.668 7.47537 -111.175 8.01674 -110.234 9.09531C-108.443 8.96289 -106.691 9.09077 -105.008 9.21366C-101.553 9.46587 -98.3875 9.69687 -95.7808 7.61313C-94.7232 6.66991 -92.6081 6.53517 -90.8455 6.53517C-90.5024 6.53517 -90.1463 6.55597 -89.7796 6.57734C-88.8282 6.63291 -87.8095 6.69235 -86.7909 6.40042C-86.1967 6.28672 -85.7581 5.98112 -85.2924 5.65569C-84.6533 5.20979 -83.9601 4.72662 -82.7375 4.64873C-77.3742 8.33914 -70.8873 7.6622 -64.0562 6.94913C-61.9081 6.72492 -59.7258 6.49712 -57.5328 6.40042C-56.8219 6.52113 -56.2536 6.80405 -55.6983 7.07964C-55.0157 7.41932 -54.3542 7.74788 -53.4782 7.74788C-52.0835 7.68863 -50.8255 7.26464 -49.538 6.83103C-47.8969 6.27854 -46.2109 5.71044 -44.137 5.86143C-42.22 7.69303 -39.2902 7.42222 -36.3969 7.15476L-36.3957 7.15472C-36.0962 7.12705 -35.7979 7.09942 -35.5008 7.07415C-32.854 6.86123 -30.2366 7.00578 -27.6122 7.15062C-23.5953 7.37242 -19.5655 7.59487 -15.4071 6.53517C-12.5622 7.9268 -9.93896 7.185 -7.20248 6.41167C-5.70044 5.98696 -4.16418 5.55274 -2.53952 5.4572C-1.3063 5.86135 0.10379 6.26551 1.51385 6.66967V6.66991C3.98151 5.05296 6.80167 4.91822 9.44617 5.18771C10.1665 5.00397 10.7054 4.68102 11.2453 4.35807C11.8914 3.97054 12.5387 3.58301 13.4996 3.43601C15.4461 4.21532 17.441 3.83991 19.5361 3.44568C21.4248 3.0901 23.3961 2.71922 25.4853 3.16653C25.7482 2.88523 25.9958 2.61591 26.2316 2.35858C26.7869 1.75307 27.2821 1.2139 27.7773 0.741107C30.1541 1.6835 32.4438 1.28079 34.9303 0.843315C37.4227 0.405068 40.112 -0.0680737 43.287 0.741107C43.5193 0.847191 43.7504 1.01823 44.0133 1.21283C44.7525 1.75977 45.744 2.49279 47.6941 2.49279C52.0517 0.232233 56.8219 1.22833 61.6393 2.2345C62.2784 2.36786 62.9174 2.50139 63.5576 2.62754C63.8665 2.8636 64.1424 3.14187 64.4253 3.42853C65.2766 4.28728 66.2021 5.22143 68.316 5.32245C68.7923 5.09509 69.2781 4.85238 69.7768 4.60339C72.2327 3.37674 74.9939 1.99761 78.3635 1.54958H79.0685C81.1836 3.43601 83.6512 3.57076 86.4714 2.62754C88.4097 2.08856 90.7017 2.2233 92.4643 3.16653C94.3802 3.96548 96.2961 3.8433 98.3817 3.71027L98.4572 3.7055C99.9663 3.55499 101.452 3.34844 102.939 3.14149C105.447 2.79262 107.963 2.44262 110.619 2.35805C113.535 2.19875 116.207 2.83985 118.85 3.47425C120.678 3.91308 122.493 4.34869 124.367 4.51398C125.795 4.75652 127.258 4.75349 128.724 4.75046C130.518 4.74676 132.316 4.74304 134.061 5.18771C134.917 5.44921 135.523 5.26665 136.121 5.08632C136.757 4.89496 137.384 4.70611 138.291 5.05296H141.993C143.112 5.77671 144.231 5.53664 145.308 5.30538C146.438 5.06302 147.522 4.83034 148.514 5.72669C149.396 6.53517 150.629 7.07415 151.863 7.20889C157.504 7.74788 163.144 6.9394 168.608 3.84025C170.42 4.60222 171.766 4.75882 173.102 4.91415Z" fill="#374F4C"/>
</g>
<defs>
<clipPath id="clip0_1_85">
<rect width="2358" height="29" fill="white" transform="translate(-408)"/>
</clipPath>
</defs>
</svg>
